<?xml version="1.0"?>
<svg xmlns="http://www.w3.org/2000/svg" viewBox="0 0 64 64">
    <path d="M 3 6 C 1.346 6 0 7.346 0 9 C 0 10.302 0.839 11.402406 2 11.816406 L 2 40.185547 C 0.839 40.598547 0 41.698 0 43 L 0 49 C 0 50.654 1.346 52 3 52 L 8.0800781 52 C 8.5680781 55.387 11.481 58 15 58 C 18.519 58 21.431922 55.387 21.919922 52 L 44.080078 52 C 44.568078 55.387 47.481 58 51 58 C 54.519 58 57.431922 55.387 57.919922 52 L 61 52 C 62.654 52 64 50.654 64 49 L 64 43 C 64 41.685 63.143844 40.578828 61.964844 40.173828 C 61.975844 40.115828 62 40.061 62 40 L 62 36.175781 C 62 35.215781 61.725078 34.278703 61.205078 33.470703 L 54.021484 22.296875 C 53.097484 20.858875 51.525406 20 49.816406 20 L 48 20 L 48 18 C 48 17.448 47.552 17 47 17 C 46.448 17 46 17.448 46 18 L 46 20 L 42 20 L 42 11.816406 C 43.161 11.402406 44 10.302 44 9 C 44 7.346 42.654 6 41 6 L 3 6 z M 3 8 L 41 8 C 41.551 8 42 8.449 42 9 C 42 9.551 41.551 10 41 10 L 3 10 C 2.449 10 2 9.551 2 9 C 2 8.449 2.449 8 3 8 z M 4 12 L 40 12 L 40 40 L 4 40 L 4 12 z M 22 14 C 15.383 14 10 19.383 10 26 C 10 32.617 15.383 38 22 38 C 28.617 38 34 32.617 34 26 C 34 19.383 28.617 14 22 14 z M 22 16 C 27.514 16 32 20.486 32 26 C 32 31.514 27.514 36 22 36 C 16.486 36 12 31.514 12 26 C 12 20.486 16.486 16 22 16 z M 42 22 L 49.816406 22 C 50.841406 22 51.785844 22.514953 52.339844 23.376953 L 59.523438 34.552734 C 59.835437 35.038734 60 35.599781 60 36.175781 L 60 40 L 42 40 L 42 22 z M 27 22.054688 C 26.74425 22.054688 26.488469 22.152156 26.292969 22.347656 L 20 28.640625 L 17.707031 26.347656 C 17.316031 25.956656 16.683969 25.956656 16.292969 26.347656 C 15.901969 26.738656 15.901969 27.370719 16.292969 27.761719 L 19.292969 30.761719 C 19.487969 30.956719 19.744 31.054688 20 31.054688 C 20.256 31.054688 20.512031 30.956719 20.707031 30.761719 L 27.707031 23.761719 C 28.098031 23.370719 28.098031 22.738656 27.707031 22.347656 C 27.511531 22.152156 27.25575 22.054688 27 22.054688 z M 46 24 C 44.897 24 44 24.897 44 26 L 44 32 C 44 33.103 44.897 34 46 34 L 53.195312 34 C 53.922312 34 54.593312 33.605703 54.945312 32.970703 C 55.298313 32.335703 55.277578 31.557406 54.892578 30.941406 L 51.142578 24.939453 C 50.773578 24.350453 50.138313 24 49.445312 24 L 46 24 z M 46 26 L 49.445312 26 L 53.201172 32 L 46 32 L 46 26 z M 45 36 C 44.448 36 44 36.448 44 37 C 44 37.552 44.448 38 45 38 L 47 38 C 47.552 38 48 37.552 48 37 C 48 36.448 47.552 36 47 36 L 45 36 z M 3 42 L 61 42 C 61.551 42 62 42.449 62 43 L 62 49 C 62 49.551 61.551 50 61 50 L 57.919922 50 C 57.431922 46.613 54.519 44 51 44 C 47.481 44 44.568078 46.613 44.080078 50 L 21.919922 50 C 21.431922 46.613 18.519 44 15 44 C 11.481 44 8.5680781 46.613 8.0800781 50 L 3 50 C 2.449 50 2 49.551 2 49 L 2 48 C 2.552 48 3 47.552 3 47 L 3 45 C 3 44.448 2.552 44 2 44 L 2 43 C 2 42.449 2.449 42 3 42 z M 7 44 C 6.448 44 6 44.448 6 45 L 6 47 C 6 47.552 6.448 48 7 48 C 7.552 48 8 47.552 8 47 L 8 45 C 8 44.448 7.552 44 7 44 z M 23 44 C 22.448 44 22 44.448 22 45 L 22 47 C 22 47.552 22.448 48 23 48 C 23.552 48 24 47.552 24 47 L 24 45 C 24 44.448 23.552 44 23 44 z M 28 44 C 27.448 44 27 44.448 27 45 L 27 47 C 27 47.552 27.448 48 28 48 C 28.552 48 29 47.552 29 47 L 29 45 C 29 44.448 28.552 44 28 44 z M 33 44 C 32.448 44 32 44.448 32 45 L 32 47 C 32 47.552 32.448 48 33 48 C 33.552 48 34 47.552 34 47 L 34 45 C 34 44.448 33.552 44 33 44 z M 38 44 C 37.448 44 37 44.448 37 45 L 37 47 C 37 47.552 37.448 48 38 48 C 38.552 48 39 47.552 39 47 L 39 45 C 39 44.448 38.552 44 38 44 z M 43 44 C 42.448 44 42 44.448 42 45 L 42 47 C 42 47.552 42.448 48 43 48 C 43.552 48 44 47.552 44 47 L 44 45 C 44 44.448 43.552 44 43 44 z M 59 44 C 58.448 44 58 44.448 58 45 L 58 47 C 58 47.552 58.448 48 59 48 C 59.552 48 60 47.552 60 47 L 60 45 C 60 44.448 59.552 44 59 44 z M 15 46 C 17.757 46 20 48.243 20 51 C 20 53.757 17.757 56 15 56 C 12.243 56 10 53.757 10 51 C 10 48.243 12.243 46 15 46 z M 51 46 C 53.757 46 56 48.243 56 51 C 56 53.757 53.757 56 51 56 C 48.243 56 46 53.757 46 51 C 46 48.243 48.243 46 51 46 z M 15 49 A 2 2 0 0 0 13 51 A 2 2 0 0 0 15 53 A 2 2 0 0 0 17 51 A 2 2 0 0 0 15 49 z M 51 49 A 2 2 0 0 0 49 51 A 2 2 0 0 0 51 53 A 2 2 0 0 0 53 51 A 2 2 0 0 0 51 49 z"/>
</svg>
